<svg width="25" height="24" viewBox="0 0 25 24" fill="none" xmlns="http://www.w3.org/2000/svg">
<g opacity="0.5">
<path d="M14.7866 10.47L12.6666 12.59L10.5366 10.47L9.12663 11.88L11.2566 14L9.13663 16.12L10.5466 17.53L12.6666 15.41L14.7866 17.53L16.1966 16.12L14.0766 14L16.1966 11.88L14.7866 10.47ZM16.1666 4L15.1666 3H10.1666L9.16663 4H5.66663V6H19.6666V4H16.1666ZM6.66663 19C6.66663 20.1 7.56663 21 8.66663 21H16.6666C17.7666 21 18.6666 20.1 18.6666 19V7H6.66663V19ZM8.66663 9H16.6666V19H8.66663V9Z" fill="#25262D"/>
</g>
</svg>
