<svg width="25" height="24" viewBox="0 0 25 24" fill="none" xmlns="http://www.w3.org/2000/svg">
<g opacity="0.5">
<path fill-rule="evenodd" clip-rule="evenodd" d="M14.7666 8C14.7666 6.84 13.8266 5.9 12.6666 5.9C11.5066 5.9 10.5666 6.84 10.5666 8C10.5666 9.16 11.5066 10.1 12.6666 10.1C13.8266 10.1 14.7666 9.16 14.7666 8ZM14.8215 15.1277C14.1255 14.9869 13.3913 14.9 12.6666 14.9C9.69663 14.9 6.56663 16.36 6.56663 17V18.1H13.6809C13.6715 18.2321 13.6666 18.3655 13.6666 18.5C13.6666 19.02 13.7388 19.5232 13.8737 20H4.66663V17C4.66663 14.34 9.99663 13 12.6666 13C13.7265 13 15.2056 13.2112 16.604 13.6322C15.9082 13.9993 15.3007 14.5111 14.8215 15.1277ZM8.66663 8C8.66663 5.79 10.4566 4 12.6666 4C14.8766 4 16.6666 5.79 16.6666 8C16.6666 10.21 14.8766 12 12.6666 12C10.4566 12 8.66663 10.21 8.66663 8Z" fill="black"/>
<rect x="23.6666" y="23" width="9" height="9" rx="4.5" transform="rotate(-180 23.6666 23)" fill="#25262D"/>
<path d="M17.6561 20.8946L19.4676 19.0831C20.1604 19.42 21.0111 19.3074 21.5773 18.7412C22.2954 18.0231 22.2846 16.845 21.5532 16.1136C20.8218 15.3822 19.6438 15.3714 18.9257 16.0895C18.3594 16.6558 18.2468 17.5064 18.5838 18.1992L18.5078 18.2751L17.632 18.2671L17.64 19.1429L16.7642 19.1349L16.7891 20.8954L17.6561 20.8946ZM19.5886 16.7524C19.9465 16.3945 20.5377 16.3999 20.9023 16.7645C21.2669 17.1291 21.2724 17.7203 20.9144 18.0783C20.5564 18.4362 19.9652 18.4308 19.6006 18.0662C19.236 17.7016 19.2306 17.1104 19.5886 16.7524Z" fill="white"/>
</g>
</svg>
