<svg width="25" height="24" viewBox="0 0 25 24" fill="none" xmlns="http://www.w3.org/2000/svg">
<g opacity="0.5">
<path d="M14.7865 10.47L12.6665 12.59L10.5365 10.47L9.1265 11.88L11.2565 14L9.1365 16.12L10.5465 17.53L12.6665 15.41L14.7865 17.53L16.1965 16.12L14.0765 14L16.1965 11.88L14.7865 10.47ZM16.1665 4L15.1665 3H10.1665L9.1665 4H5.6665V6H19.6665V4H16.1665ZM6.6665 19C6.6665 20.1 7.5665 21 8.6665 21H16.6665C17.7665 21 18.6665 20.1 18.6665 19V7H6.6665V19ZM8.6665 9H16.6665V19H8.6665V9Z" fill="#25262D"/>
</g>
</svg>
