<svg width="25" height="24" viewBox="0 0 25 24" fill="none" xmlns="http://www.w3.org/2000/svg">
<g opacity="0.5">
<path d="M5.70131 10.62C5.10158 10.0485 4.15211 10.0714 3.5806 10.6711C3.0091 11.2708 3.03197 12.2203 3.6317 12.7918L5.70131 10.62ZM10.2221 17L9.18726 18.0859C9.76665 18.638 10.6775 18.638 11.2569 18.0859L10.2221 17ZM20.7013 9.0859C21.301 8.5144 21.3239 7.56493 20.7524 6.9652C20.1809 6.36547 19.2314 6.34259 18.6317 6.9141L20.7013 9.0859ZM3.6317 12.7918L9.18726 18.0859L11.2569 15.9141L5.70131 10.62L3.6317 12.7918ZM11.2569 18.0859L20.7013 9.0859L18.6317 6.9141L9.18726 15.9141L11.2569 18.0859Z" fill="#25262D"/>
</g>
</svg>
