<svg width="25" height="24" viewBox="0 0 25 24" fill="none" xmlns="http://www.w3.org/2000/svg">
<g opacity="0.5">
<path d="M16.9596 3.29289C17.3502 2.90237 17.9833 2.90237 18.3739 3.29289L21.3739 6.29289C21.7644 6.68342 21.7644 7.31658 21.3739 7.70711L12.3739 16.7071C12.1863 16.8946 11.932 17 11.6667 17H8.66675C8.11446 17 7.66675 16.5523 7.66675 16V13C7.66675 12.7348 7.77211 12.4804 7.95964 12.2929L16.9596 3.29289ZM9.66675 13.4142V15H11.2525L19.2525 7L17.6667 5.41421L9.66675 13.4142ZM3.66675 7C3.66675 5.89543 4.56218 5 5.66675 5H10.6667C11.219 5 11.6667 5.44772 11.6667 6C11.6667 6.55228 11.219 7 10.6667 7H5.66675V19H17.6667V14C17.6667 13.4477 18.1145 13 18.6667 13C19.219 13 19.6667 13.4477 19.6667 14V19C19.6667 20.1046 18.7713 21 17.6667 21H5.66675C4.56218 21 3.66675 20.1046 3.66675 19V7Z" fill="#25262D"/>
</g>
</svg>
