<svg width="25" height="24" viewBox="0 0 25 24" fill="none" xmlns="http://www.w3.org/2000/svg">
<g opacity="0.5">
<path fill-rule="evenodd" clip-rule="evenodd" d="M14.7667 8C14.7667 6.84 13.8267 5.9 12.6667 5.9C11.5067 5.9 10.5667 6.84 10.5667 8C10.5667 9.16 11.5067 10.1 12.6667 10.1C13.8267 10.1 14.7667 9.16 14.7667 8ZM14.8216 15.1277C14.1257 14.9869 13.3914 14.9 12.6667 14.9C9.69675 14.9 6.56675 16.36 6.56675 17V18.1H13.6811C13.6716 18.2321 13.6667 18.3655 13.6667 18.5C13.6667 19.02 13.7389 19.5232 13.8738 20H4.66675V17C4.66675 14.34 9.99675 13 12.6667 13C13.7266 13 15.2057 13.2112 16.6041 13.6322C15.9084 13.9993 15.3008 14.5111 14.8216 15.1277ZM8.66675 8C8.66675 5.79 10.4567 4 12.6667 4C14.8767 4 16.6667 5.79 16.6667 8C16.6667 10.21 14.8767 12 12.6667 12C10.4567 12 8.66675 10.21 8.66675 8Z" fill="black"/>
<rect x="23.6667" y="23" width="9" height="9" rx="4.5" transform="rotate(-180 23.6667 23)" fill="#25262D"/>
<path d="M17.6562 20.8946L19.4678 19.0831C20.1605 19.42 21.0112 19.3074 21.5774 18.7412C22.2955 18.0231 22.2847 16.845 21.5533 16.1136C20.8219 15.3822 19.6439 15.3714 18.9258 16.0895C18.3595 16.6558 18.2469 17.5064 18.5839 18.1992L18.5079 18.2751L17.6321 18.2671L17.6401 19.1429L16.7643 19.1349L16.7892 20.8954L17.6562 20.8946ZM19.5887 16.7524C19.9467 16.3945 20.5379 16.3999 20.9025 16.7645C21.2671 17.1291 21.2725 17.7203 20.9145 18.0783C20.5565 18.4362 19.9653 18.4308 19.6007 18.0662C19.2361 17.7016 19.2307 17.1104 19.5887 16.7524Z" fill="white"/>
</g>
</svg>
